<svg xmlns="http://www.w3.org/2000/svg" viewBox="0 0 900 900"><defs><radialGradient id="a"><stop stop-color="#fff"/><stop offset="1" stop-color="#dcefe3"/></radialGradient><filter id="s"><feDropShadow dx="0" dy="24" stdDeviation="25" flood-opacity=".16"/></filter></defs><rect width="900" height="900" rx="40" fill="url(#a)"/><circle cx="450" cy="460" r="300" fill="#fff" filter="url(#s)"/><circle cx="450" cy="460" r="240" fill="#f8faf7" stroke="#d8e5dd" stroke-width="7"/><g fill="#65985a"><ellipse cx="300" cy="365" rx="52" ry="29" transform="rotate(-25 300 365)"/><ellipse cx="330" cy="330" rx="50" ry="27" transform="rotate(25 330 330)"/><ellipse cx="286" cy="420" rx="48" ry="27" transform="rotate(18 286 420)"/></g><ellipse cx="470" cy="340" rx="70" ry="57" fill="#fff" stroke="#e0e6df" stroke-width="6"/><circle cx="478" cy="345" r="23" fill="#f0b944"/><ellipse cx="555" cy="425" rx="67" ry="54" fill="#fff" stroke="#e0e6df" stroke-width="6"/><circle cx="562" cy="430" r="22" fill="#f0b944"/><path d="M320 555Q390 460 520 505Q620 535 650 620Q570 685 455 670Q350 650 320 555Z" fill="#d88a5e"/><path d="M350 550Q470 500 590 555M365 605Q480 565 615 610" fill="none" stroke="#f2c2a0" stroke-width="13" stroke-linecap="round"/><path d="M645 320Q720 350 690 450Q660 510 600 485Q565 465 580 405Q590 345 645 320Z" fill="#76a55d"/><path d="M640 350Q680 365 666 420Q650 462 620 452Q600 444 608 405Q612 370 640 350Z" fill="#dbe6a4"/><circle cx="635" cy="420" r="19" fill="#96693d"/><circle cx="285" cy="575" r="42" fill="#e4664e"/><circle cx="335" cy="655" r="38" fill="#df5e4b"/><circle cx="690" cy="575" r="43" fill="#df664e"/><g fill="#efa73d"><path d="M270 490q60-45 90 5-55 20-90-5Z"/><path d="M660 650q55-35 80 10-45 15-80-10Z"/></g><g fill="#3f8957"><circle cx="705" cy="480" r="27"/><circle cx="742" cy="505" r="30"/><circle cx="715" cy="535" r="28"/><path d="M715 535v45" stroke="#5b8951" stroke-width="15"/></g><g fill="#d5a65b"><ellipse cx="450" cy="720" rx="75" ry="28"/><ellipse cx="535" cy="710" rx="65" ry="25"/></g></svg>