<svg xmlns="http://www.w3.org/2000/svg" viewBox="0 0 1000 720">
<defs><linearGradient id="b" x1="0" y1="0" x2="1" y2="1"><stop stop-color="#d6ebdd"/><stop offset="1" stop-color="#eff6ee"/></linearGradient><radialGradient id="p"><stop stop-color="#fff"/><stop offset="1" stop-color="#eef2ec"/></radialGradient></defs>
<rect width="1000" height="720" rx="40" fill="url(#b)"/><circle cx="500" cy="370" r="270" fill="#fff"/><circle cx="500" cy="370" r="220" fill="url(#p)" stroke="#d6e3da" stroke-width="7"/>
<g fill="#5d9258"><ellipse cx="355" cy="280" rx="55" ry="30" transform="rotate(-25 355 280)"/><ellipse cx="400" cy="245" rx="52" ry="28" transform="rotate(25 400 245)"/><ellipse cx="650" cy="290" rx="50" ry="28" transform="rotate(25 650 290)"/></g>
<path d="M330 405Q370 310 480 300Q600 295 680 370Q710 425 670 495Q570 555 450 530Q350 510 330 405Z" fill="#d88a5d"/>
<path d="M360 390Q480 330 620 380M370 450Q490 400 650 450" fill="none" stroke="#f0b99b" stroke-width="14" stroke-linecap="round"/>
<path d="M680 250Q740 270 725 345Q710 400 655 385Q620 370 630 315Q640 265 680 250Z" fill="#79a75e"/><path d="M675 275Q710 290 700 330Q688 360 660 350Q646 342 652 315Q657 288 675 275Z" fill="#dbe7a6"/><circle cx="677" cy="320" r="16" fill="#96683e"/>
<circle cx="285" cy="430" r="39" fill="#e2654e"/><circle cx="715" cy="470" r="41" fill="#df614d"/><circle cx="610" cy="255" r="38" fill="#efb63f"/>
<g fill="#e6a33b"><ellipse cx="410" cy="500" rx="70" ry="24"/><ellipse cx="520" cy="515" rx="68" ry="25"/></g>
</svg>