<svg xmlns="http://www.w3.org/2000/svg" viewBox="0 0 900 650"><rect width="900" height="650" rx="35" fill="#dfeee3"/><ellipse cx="450" cy="340" rx="300" ry="245" fill="#fff"/><ellipse cx="450" cy="340" rx="240" ry="190" fill="#f7faf5" stroke="#d5e3da" stroke-width="7"/><path d="M270 350q60-130 170-60t145 35q65 35 75 105-130 100-270 55-110-35-120-135Z" fill="#d8895f"/><g fill="#619456"><ellipse cx="310" cy="245" rx="50" ry="27" transform="rotate(-30 310 245)"/><ellipse cx="350" cy="225" rx="50" ry="26" transform="rotate(28 350 225)"/><ellipse cx="650" cy="280" rx="46" ry="27"/></g><circle cx="600" cy="230" r="48" fill="#e66851"/><circle cx="675" cy="410" r="48" fill="#e65f4e"/><path d="M490 225q80 0 95 65-40 65-100 30-35-30 5-95Z" fill="#75a65b"/><circle cx="535" cy="275" r="16" fill="#93673d"/><ellipse cx="410" cy="470" rx="90" ry="32" fill="#d6a45a"/><circle cx="315" cy="410" r="36" fill="#f0b844"/></svg>